<svg width="142" height="57" viewBox="0 0 142 57" fill="none" xmlns="http://www.w3.org/2000/svg">
<path d="M126.217 28.8479C123.563 34.1909 120.916 38.9084 118.634 42.8733C114.052 50.8262 110.996 55.7812 111.899 56.5239C112.803 57.2665 117.432 53.4297 123.376 46.0591C126.893 41.6894 130.075 37.0606 132.896 32.2121C134.494 29.4554 136.071 26.5346 137.56 23.3958C138.327 21.8444 139.007 20.262 139.741 18.6105C140.626 16.6252 141.23 14.5261 141.536 12.3739C141.715 10.9422 141.586 9.48868 141.158 8.11095C140.843 7.1683 140.361 6.28969 139.736 5.51675C139.697 5.13431 139.518 4.77998 139.232 4.52262C138.946 4.26526 138.575 4.12333 138.191 4.12435C136.446 2.99388 134.464 2.28256 132.398 2.04604C128.998 1.65163 126.157 1.39678 123.187 1.11607C117.398 0.598558 112.15 0.243655 107.681 0.126263C98.8322 -0.223654 93.2366 0.151155 93.0034 1.30394C92.7703 2.45673 97.9434 4.23641 106.499 6.10035C110.777 7.03232 115.891 7.98659 121.611 8.9704C121.868 8.9888 122.124 9.02707 122.375 9.08484C118.322 10.665 113.325 12.6941 107.12 15.2255C98.3115 18.7636 87.3793 22.9787 75.7491 26.426C64.289 29.9376 52.5073 32.2977 40.5788 33.4715C31.0538 34.4265 21.4552 34.3841 11.939 33.3449C4.71859 32.5244 0.258541 31.6357 0.0109854 32.3323C-0.23657 33.0288 3.71827 35.2287 10.9127 37.3639C20.4773 40.0027 30.3766 41.2279 40.2959 41.0006C52.8389 40.7423 65.308 39.0086 77.4457 35.8355C88.5712 32.9689 99.4923 29.3607 110.136 25.0351C120.948 20.689 127.893 17.4006 132.465 14.9656C131.846 16.707 130.911 18.7579 130.133 20.5605C128.83 23.51 127.512 26.3365 126.155 29.022" fill="white"/>
</svg>
