<svg width="212" height="162" viewBox="0 0 212 162" fill="none" xmlns="http://www.w3.org/2000/svg">
<path d="M104.591 88.1188C100.543 84.63 97.0614 80.5337 94.2708 75.9763C91.5627 71.4018 89.5041 66.4727 88.1542 61.331C86.7503 56.3295 85.9544 51.1771 85.7836 45.9851C85.5885 40.7968 86.3078 35.6146 87.9085 30.6755C88.726 28.1887 89.8989 25.8332 91.3909 23.6823C92.912 21.4273 94.9109 19.5348 97.2457 18.1391C99.8691 16.6103 102.929 16.0032 105.937 16.4145C109.004 16.9152 111.866 18.2748 114.191 20.3358C115.298 21.2729 116.326 22.299 117.265 23.4039C118.129 24.4882 118.936 25.6171 119.683 26.7859C120.403 27.9083 121.05 29.0765 121.619 30.2829L122.558 32.1217L123.3 33.9147C125.11 38.5128 126.467 43.2759 127.355 48.1368C128.29 52.888 128.547 57.7476 128.12 62.571C127.71 67.1455 126.639 71.6363 124.94 75.9031L124.347 77.4508L123.618 78.9295C123.147 79.9023 122.659 80.9163 122.178 81.8454C121.162 83.7088 120.05 85.5183 118.847 87.2666C118.145 88.2763 117.388 89.2527 116.631 90.229C117.625 90.7873 118.572 91.2271 119.651 91.7928C123.705 93.717 128 95.0871 132.419 95.8662C136.659 96.5579 140.981 96.5988 145.233 95.9876C153.32 94.5709 160.981 91.3398 167.64 86.5369C173.876 82.0319 179.454 76.6796 184.212 70.6347C188.589 65.1137 192.512 59.248 195.944 53.095C199.01 47.7334 201.715 42.1732 204.041 36.4513C207.494 28.0803 209.554 19.2005 210.139 10.1641C210.437 3.66344 209.821 -0.0750535 210.2 0.00094534C210.574 0.833315 210.805 1.72251 210.884 2.63145C211.309 5.16746 211.538 7.73237 211.57 10.3035C211.525 19.5705 209.831 28.7556 206.569 37.4294C204.405 43.3691 201.833 49.1519 198.871 54.7364C195.534 61.155 191.678 67.2897 187.34 73.0792C182.521 79.5313 176.811 85.2682 170.382 90.1187C163.296 95.4833 155.069 99.1423 146.339 100.812C141.587 101.594 136.741 101.638 131.975 100.94C127.007 100.156 122.171 98.6903 117.603 96.5837C116.02 95.88 114.478 95.087 112.984 94.2087C109.767 97.6913 106.243 100.877 102.454 103.727C92.3097 111.225 81.1145 117.185 69.2301 121.415C60.6398 124.54 51.8115 126.967 42.8311 128.674C32.8954 130.641 22.7767 131.532 12.6501 131.332L9.49622 131.141L12.0059 132.818C14.6554 134.692 17.112 136.649 19.4318 138.537C23.4889 141.935 27.2806 145.637 30.7736 149.612C36.7476 156.419 39.446 161.325 38.8653 161.76C38.2846 162.195 34.4431 158.274 28.0551 152.445C24.8096 149.548 20.9364 146.152 16.3958 142.713C14.1203 140.972 11.7031 139.218 9.15454 137.495C7.8584 136.639 6.54934 135.768 5.20944 134.922C4.53303 134.492 3.90584 134.151 2.95287 133.454C1.6831 132.573 0.736109 131.302 0.256248 129.833C0.0178685 129.041 -0.0550882 128.208 0.041871 127.386C0.127833 126.744 0.29803 126.115 0.548145 125.517C0.940084 124.644 1.42436 123.815 1.99271 123.044C2.8592 121.792 3.75157 120.57 4.60017 119.359C6.33865 116.955 8.03886 114.661 9.67246 112.476C12.9914 108.168 16.0857 104.469 18.8469 101.311C24.2362 95.2131 28.0938 91.766 28.7191 92.292C29.3443 92.818 26.6878 97.2271 22.1356 104.041L14.043 115.901C12.5151 118.128 10.9258 120.46 9.275 122.896C8.45475 124.109 7.6037 125.349 6.75263 126.588C6.72777 126.62 6.69622 126.647 6.66015 126.666C7.88842 126.502 9.63187 126.326 12.1302 126.173C21.8482 125.486 31.5105 124.16 41.0548 122.206C49.6583 120.35 58.1173 117.878 66.3662 114.809C77.6298 110.702 88.2473 105.004 97.8951 97.8871C101.054 95.4911 104.021 92.8522 106.769 89.9946C106.007 89.3995 105.245 88.8044 104.514 88.1834L104.591 88.1188ZM112.85 82.686C113.938 81.1522 114.945 79.5623 115.866 77.9227C116.308 77.1046 116.713 76.2402 117.145 75.3783L117.772 74.0906L118.29 72.7364C119.792 69.086 120.736 65.2304 121.09 61.2991C121.488 57.1387 121.292 52.9429 120.51 48.8376C119.762 44.4636 118.582 40.1744 116.988 36.0331L116.367 34.4792L115.654 33.003C115.19 32.0257 114.672 31.0745 114.104 30.1538C113.572 29.2076 112.949 28.4961 112.289 27.5529C111.65 26.7868 110.948 26.0757 110.19 25.427C108.994 24.1883 107.422 23.3798 105.718 23.1275C104.015 22.8751 102.276 23.193 100.772 24.0317C97.4761 26.2573 95.0566 29.5596 93.9278 33.3729C92.5218 37.5822 91.8595 42.0042 91.9705 46.4407C92.0775 51.1128 92.7454 55.7552 93.9598 60.2679C95.0774 64.8218 96.8293 69.196 99.164 73.2624C101.579 77.2668 104.602 80.8705 108.127 83.9437C108.881 84.6238 109.667 85.2781 110.454 85.904C111.304 84.8501 112.124 83.7936 112.968 82.6392" fill="white"/>
</svg>
