<svg width="221" height="89" viewBox="0 0 221 89" fill="none" xmlns="http://www.w3.org/2000/svg">
<path d="M218.404 15.4663C216.296 21.2403 213.657 26.8085 210.52 32.0999C205.85 40.0638 199.993 47.2777 193.149 53.4954C189.144 57.1651 184.473 60.0438 179.386 61.9783C173.904 63.8727 167.989 64.1572 162.349 62.7978C156.422 61.3622 150.901 58.6054 146.203 54.7357C141.441 50.73 137.358 45.9887 134.11 40.6935C130.831 35.1896 127.857 29.511 125.202 23.6834C122.338 17.2003 118.037 11.4456 112.619 6.85053C106.491 2.26631 98.9954 -0.143315 91.3289 0.00659476C87.7246 -0.0139412 84.1301 0.379962 80.6168 1.18047C77.2775 1.89433 74.0007 2.87198 70.8178 4.10409C64.9342 6.41083 59.3372 9.38354 54.1373 12.9635C49.5749 16.1698 45.2165 19.6538 41.0869 23.3955C29.6329 33.7817 20.3083 46.2743 13.6274 60.1842C11.4773 64.7052 9.68281 69.3852 8.26025 74.1822C7.92619 72.2109 7.61442 70.3061 7.30263 68.4899C6.47863 64.0602 5.65463 59.9406 4.87517 56.5519C3.29397 49.7966 1.84642 45.6548 0.933335 45.7655C0.0202488 45.8763 -0.202515 50.1953 0.176082 57.1278C0.354245 60.5829 0.710598 64.6804 1.17828 69.2209C1.44552 71.4357 1.71276 73.8721 2.00227 76.3527C2.15816 77.5709 2.31406 78.8334 2.49222 80.0958L2.75946 82.0228L2.89307 83.0416C2.98634 83.6187 3.12034 84.1886 3.29399 84.747C3.65483 85.97 4.3858 87.0527 5.38741 87.8478C6.41556 88.6109 7.66786 89.0156 8.95062 88.9995C10.259 88.9607 11.531 88.5621 12.6253 87.8478C13.119 87.5428 13.5949 87.21 14.0506 86.8511L14.7855 86.2752C16.7898 84.6806 18.7719 83.1966 20.6872 81.8455C24.4954 79.0548 28.0587 76.5964 30.9984 74.4701C36.9223 70.2619 40.4633 67.3604 39.9065 66.6516C39.3498 65.9429 35.007 67.5154 28.3259 70.8599C25.0076 72.5432 21.1102 74.6694 16.9457 77.3273C15.6095 78.1468 14.2732 79.077 12.9147 80.0072C15.1311 74.2461 17.6512 68.6052 20.4644 63.1079C27.1815 50.2337 36.0959 38.6176 46.8103 28.7776C50.693 25.2832 54.7753 22.0145 59.0368 18.9879C63.6642 15.7295 68.6565 13.0165 73.9134 10.9037C76.6694 9.80953 79.5062 8.92838 82.3984 8.26803C85.3201 7.59238 88.3071 7.23587 91.3066 7.20488C97.1847 6.98907 102.965 8.74416 107.72 12.1883C112.377 16.0954 116.105 20.9824 118.632 26.4963C121.471 32.4734 124.661 38.279 128.186 43.8829C131.92 49.6785 136.576 54.8323 141.972 59.1433C147.528 63.507 154.021 66.5385 160.946 68.0027C167.733 69.4599 174.8 68.9133 181.279 66.4301C186.901 64.1329 192.016 60.7619 196.334 56.5076C203.214 49.791 208.946 42.0032 213.304 33.4509C216.223 27.8883 218.466 21.9996 219.985 15.9093C220.987 11.6346 221.143 9.26471 220.898 9.26471C220.653 9.26471 219.874 11.4795 218.381 15.577" fill="white"/>
</svg>
