<svg width="201" height="119" viewBox="0 0 201 119" fill="none" xmlns="http://www.w3.org/2000/svg">
<path d="M199.898 98.0632C199.469 96.9957 198.854 96.0123 198.083 95.1582C196.969 93.8591 195.676 92.7239 194.245 91.7861C177.281 79.968 162.711 71.7033 161.733 73.3243C160.755 74.9452 172.739 85.0277 188.774 96.3297C186.238 96.4721 182.85 96.6844 178.42 96.7981C173.991 96.9118 168.287 96.9269 161.344 96.3893C153.004 95.8086 144.722 94.5676 136.578 92.6781C131.329 91.4705 126.147 89.9896 121.053 88.2416C115.081 86.2449 109.252 83.8431 103.606 81.053C100.358 79.4406 97.2034 77.6452 94.1583 75.6755C94.3036 75.5847 94.4488 75.494 94.594 75.4032C102.927 72.0362 110.083 66.2898 115.171 58.8812C119.511 52.6465 121.89 45.2572 122.001 37.6613C122.113 30.0654 119.952 22.6094 115.797 16.2499C112.996 11.732 109.254 7.87035 104.827 4.92767C100.444 1.91576 95.2962 0.209991 89.9819 0.00875183C84.9347 -0.114548 79.9528 1.17016 75.5947 3.71888C71.4175 6.23362 67.8402 9.63059 65.1128 13.6722C62.3855 17.7137 60.574 22.3023 59.8051 27.1171C58.5193 36.7097 60.1524 46.4672 64.4918 55.1183C67.8941 62.1581 72.5598 68.5137 78.2569 73.8689C75.4393 74.3292 72.5969 74.6216 69.7446 74.7447C62.3709 75.0303 54.988 74.5166 47.7249 73.2124C41.063 72.0865 34.5826 70.0708 28.4575 67.2193C23.1257 64.6258 18.4289 60.8924 14.6993 56.2833C9.13032 49.4053 5.03644 41.4548 2.67229 32.9266C1.98157 29.7182 1.11868 26.5493 0.0873438 23.4337C-0.168415 26.734 0.140012 30.0539 0.999382 33.2506C2.80367 42.3556 6.62919 50.9392 12.1937 58.3683C16.1116 63.6057 21.1381 67.9131 26.9139 70.9825C33.3147 74.2655 40.1365 76.653 47.1876 78.078C54.7939 79.6815 62.5519 80.4545 70.3251 80.3833C74.9752 80.307 79.6075 79.789 84.1596 78.8362C89.2361 82.7686 94.6941 86.1821 100.452 89.0255C106.465 92.0047 112.684 94.55 119.06 96.6421C132.789 101.314 147.109 104.023 161.595 104.686C167.468 104.936 173.352 104.788 179.206 104.242C182.757 103.937 186.286 103.418 189.775 102.687L191.388 102.313C191.195 102.42 191.008 102.537 190.828 102.663C189.482 103.88 188.218 105.044 187.017 106.17C184.59 108.379 182.426 110.366 180.639 112.031C176.995 115.433 175.008 117.656 175.508 118.41C176.009 119.165 178.909 118.219 183.318 115.81C185.905 114.382 188.412 112.815 190.83 111.116C192.261 110.221 193.647 109.067 195.112 107.95C195.877 107.327 196.523 106.837 197.407 106.082C197.935 105.627 198.406 105.11 198.811 104.542C199.408 103.747 199.82 102.829 200.017 101.855C200.262 100.604 200.161 99.3106 199.727 98.1125L199.898 98.0632ZM91.9569 69.7515C90.6704 70.3245 89.3787 70.8431 88.0611 71.3202C87.3116 70.721 86.5673 70.1763 85.8593 69.5512C80.0008 64.6507 75.2272 58.5837 71.8424 51.7369C68.2612 44.7518 66.8442 36.8575 67.7725 29.063C68.3322 25.3413 69.6885 21.7841 71.7487 18.6345C73.8089 15.4848 76.5245 12.8169 79.7101 10.8129C82.8797 8.88048 86.5258 7.87119 90.2379 7.89861C94.0923 7.99113 97.84 9.18288 101.04 11.3336C104.485 13.6547 107.438 16.6341 109.728 20.1004C112.017 23.5667 113.599 27.4515 114.382 31.5314C115.734 39.6139 113.997 47.9094 109.514 54.7698C105.27 61.3878 99.1793 66.6177 91.9958 69.8137" fill="white"/>
</svg>
