<svg xmlns="http://www.w3.org/2000/svg" viewBox="0 0 48 48" fill="none">
  <path d="M33.5 16.2a8.3 8.3 0 0 1-5.2-1.8 8.3 8.3 0 0 1-2.8-5.4h-5v21.5a5 5 0 0 1-5 4.8 5 5 0 0 1-5-5 5 5 0 0 1 5-5c.5 0 1 .1 1.5.2V20a10.6 10.6 0 0 0-1.5-.1C9.9 19.9 5 24.8 5 30.8a10.5 10.5 0 0 0 10.5 10.5c5.8 0 10.5-4.7 10.5-10.5V19.7a13.5 13.5 0 0 0 7.5 2.3v-5.8z" fill="#010101"/>
  <path d="M34 15.7a8.3 8.3 0 0 1-5.2-1.8 8.3 8.3 0 0 1-2.8-5.4h-5v21.5a5 5 0 0 1-5 4.8 5 5 0 0 1-5-5 5 5 0 0 1 5-5c.5 0 1 .1 1.5.2v-5.6a10.6 10.6 0 0 0-1.5-.1C10.4 19.3 5.5 24.2 5.5 30.2a10.5 10.5 0 0 0 10.5 10.5c5.8 0 10.5-4.7 10.5-10.5V19.1a13.5 13.5 0 0 0 7.5 2.3v-5.7z" fill="#25F4EE"/>
  <path d="M33.2 16a8.3 8.3 0 0 1-5.2-1.8A8.3 8.3 0 0 1 25.2 9h-5v21.5a5 5 0 0 1-5 4.8 5 5 0 0 1-5-5 5 5 0 0 1 5-5c.5 0 1 .1 1.5.2v-5.6a10.6 10.6 0 0 0-1.5-.1c-5.6 0-10.4 4.9-10.4 10.9a10.5 10.5 0 0 0 10.5 10.5c5.8 0 10.5-4.7 10.5-10.5V19.5a13.5 13.5 0 0 0 7.5 2.3V16z" fill="#FE2C55"/>
</svg>
